<svg width="32" height="32" viewBox="0 0 32 32" fill="none" xmlns="http://www.w3.org/2000/svg">
<path d="M10.667 10.6667V9.33333C10.667 7.91885 11.2289 6.56229 12.2291 5.5621C13.2293 4.5619 14.5858 4 16.0003 4C17.4148 4 18.7714 4.5619 19.7716 5.5621C20.7718 6.56229 21.3337 7.91885 21.3337 9.33333V10.6667" stroke="#0A0D12" stroke-width="2" stroke-linecap="round"/>
<path fill-rule="evenodd" clip-rule="evenodd" d="M4.78133 10.1153C4 10.8967 4 12.1527 4 14.6673V18.6673C4 23.6953 4 26.21 5.56267 27.7713C7.12533 29.3327 9.63867 29.334 14.6667 29.334H17.3333C22.3613 29.334 24.876 29.334 26.4373 27.7713C27.9987 26.2087 28 23.6953 28 18.6673V14.6673C28 12.1527 28 10.8967 27.2187 10.1153C26.4373 9.33398 25.1813 9.33398 22.6667 9.33398H9.33333C6.81867 9.33398 5.56267 9.33398 4.78133 10.1153ZM13.3333 16.0007C13.3333 15.647 13.1929 15.3079 12.9428 15.0578C12.6928 14.8078 12.3536 14.6673 12 14.6673C11.6464 14.6673 11.3072 14.8078 11.0572 15.0578C10.8071 15.3079 10.6667 15.647 10.6667 16.0007V18.6673C10.6667 19.0209 10.8071 19.3601 11.0572 19.6101C11.3072 19.8602 11.6464 20.0007 12 20.0007C12.3536 20.0007 12.6928 19.8602 12.9428 19.6101C13.1929 19.3601 13.3333 19.0209 13.3333 18.6673V16.0007ZM21.3333 16.0007C21.3333 15.647 21.1929 15.3079 20.9428 15.0578C20.6928 14.8078 20.3536 14.6673 20 14.6673C19.6464 14.6673 19.3072 14.8078 19.0572 15.0578C18.8071 15.3079 18.6667 15.647 18.6667 16.0007V18.6673C18.6667 19.0209 18.8071 19.3601 19.0572 19.6101C19.3072 19.8602 19.6464 20.0007 20 20.0007C20.3536 20.0007 20.6928 19.8602 20.9428 19.6101C21.1929 19.3601 21.3333 19.0209 21.3333 18.6673V16.0007Z" fill="#0A0D12"/>
</svg>
