<svg width="38" height="38" viewBox="0 0 38 38" fill="none" xmlns="http://www.w3.org/2000/svg">
<g opacity="0.3">
<path d="M19 6C26.1797 6 32 11.8203 32 19C32 26.1797 26.1797 32 19 32C11.8203 32 6 26.1797 6 19C6 11.8203 11.8203 6 19 6Z" stroke="#D92D20" stroke-width="2"/>
</g>
<g opacity="0.1">
<path d="M19 1C28.9411 1 37 9.05887 37 19C37 28.9411 28.9411 37 19 37C9.05887 37 1 28.9411 1 19C1 9.05887 9.05887 1 19 1Z" stroke="#D92D20" stroke-width="2"/>
</g>
<g clip-path="url(#clip0_5003_287)">
<path d="M19 15.6665V18.9998M19 22.3332H19.0084M27.3334 18.9998C27.3334 23.6022 23.6024 27.3332 19 27.3332C14.3976 27.3332 10.6667 23.6022 10.6667 18.9998C10.6667 14.3975 14.3976 10.6665 19 10.6665C23.6024 10.6665 27.3334 14.3975 27.3334 18.9998Z" stroke="#D92D20" stroke-width="1.66667" stroke-linecap="round" stroke-linejoin="round"/>
</g>
<defs>
<clipPath id="clip0_5003_287">
<rect width="20" height="20" fill="white" transform="translate(9 9)"/>
</clipPath>
</defs>
</svg>
