<svg width="35" height="35" viewBox="0 0 35 35" fill="none" xmlns="http://www.w3.org/2000/svg">
<g opacity="0.3">
<path d="M17.4997 4.99951C24.4031 4.99951 29.9995 10.5961 29.9997 17.4995C29.9997 24.4031 24.4033 29.9995 17.4997 29.9995C10.5963 29.9993 4.99969 24.403 4.99969 17.4995C4.99987 10.5962 10.5964 4.99969 17.4997 4.99951Z" stroke="#DC6803" stroke-width="1.66667"/>
</g>
<g opacity="0.1">
<path d="M17.5 0.833008C26.7047 0.833008 34.167 8.29525 34.167 17.5C34.167 26.7047 26.7047 34.167 17.5 34.167C8.29525 34.167 0.833008 26.7047 0.833008 17.5C0.833008 8.29525 8.29525 0.833008 17.5 0.833008Z" stroke="#DC6803" stroke-width="1.66667"/>
</g>
<g clip-path="url(#clip0_5003_329)">
<path d="M17.5 14.1665V17.4998M17.5 20.8332H17.5084M25.8334 17.4998C25.8334 22.1022 22.1024 25.8332 17.5 25.8332C12.8976 25.8332 9.16669 22.1022 9.16669 17.4998C9.16669 12.8975 12.8976 9.1665 17.5 9.1665C22.1024 9.1665 25.8334 12.8975 25.8334 17.4998Z" stroke="#DC6803" stroke-width="1.66667" stroke-linecap="round" stroke-linejoin="round"/>
</g>
<defs>
<clipPath id="clip0_5003_329">
<rect width="20" height="20" fill="white" transform="translate(7.5 7.5)"/>
</clipPath>
</defs>
</svg>
